<svg width="588" height="588" viewBox="0 0 588 588" fill="none" xmlns="http://www.w3.org/2000/svg">
<path d="M301.53 580.138L300.576 371.34C300.559 368.324 299.025 365.514 296.496 363.878L292.884 361.553C290.176 359.798 286.556 361.357 285.951 364.526L277.595 408.544C276.42 412.522 273.115 417.922 264.001 411.977L198.229 369.048C189.115 363.103 192.735 357.899 195.904 355.224L232.836 329.859C235.493 328.037 235.459 324.093 232.768 322.313L229.182 319.945C226.66 318.284 223.475 318.003 220.707 319.212L29.1816 402.378C24.1818 404.549 23.5941 411.415 28.168 414.396L57.4512 433.518C65.0233 438.466 74.8355 438.356 82.2969 433.228L156.808 382.063C169.022 373.673 185.708 384.474 185.708 384.474L254.905 429.642C254.905 429.642 271.505 440.57 268.746 455.127L251.898 543.93C250.211 552.823 254.053 561.851 261.633 566.791L290.925 585.905C295.491 588.886 301.538 585.59 301.512 580.138H301.53Z" fill="#8298A2"/>
<path d="M560.522 172.897L531.239 153.775C523.667 148.827 513.846 148.946 506.393 154.065L431.882 205.23C419.668 213.62 402.982 202.819 402.982 202.819L333.786 157.651C333.786 157.651 317.185 146.723 319.945 132.166L336.792 43.3627C338.479 34.4704 334.637 25.4419 327.057 20.5017L297.765 1.38836C293.2 -1.59278 287.152 1.7035 287.178 7.15472L288.132 215.953C288.149 218.969 289.682 221.771 292.22 223.415L295.832 225.74C298.54 227.495 302.169 225.936 302.765 222.767L310.49 182.079L311.121 178.749C312.296 174.771 315.601 169.363 324.715 175.316L390.487 218.245C399.601 224.19 395.972 229.394 392.812 232.069L390.018 233.985L355.88 257.425C353.223 259.248 353.257 263.192 355.948 264.972L359.534 267.34C362.055 269.001 365.241 269.282 368.009 268.081L559.534 184.916C564.534 182.744 565.122 175.878 560.556 172.897H560.522Z" fill="#548CA5"/>
<path d="M223.475 285.244L179.456 276.888C175.479 275.713 170.07 272.408 176.024 263.294L218.952 197.522C224.897 188.417 230.102 192.037 232.776 195.197L258.141 232.129C259.964 234.786 263.908 234.752 265.688 232.061L268.056 228.475C269.717 225.962 269.998 222.768 268.797 220L185.623 28.4916C183.451 23.4918 176.586 22.9126 173.605 27.478L154.483 56.7613C149.534 64.3334 149.645 74.1455 154.773 81.6069L205.937 156.118C214.327 168.332 203.527 185.018 203.527 185.018L158.358 254.215C158.358 254.215 147.43 270.815 132.874 268.056L44.0703 251.208C35.178 249.521 26.1494 253.363 21.2092 260.943L2.09588 290.235C-0.885259 294.801 2.41103 300.848 7.86224 300.831L216.661 299.877C219.676 299.86 222.487 298.327 224.122 295.789L226.456 292.177C228.202 289.469 226.652 285.849 223.483 285.244H223.475Z" fill="#F36C24"/>
<path d="M433.935 505.685L382.77 431.174C374.38 418.96 385.181 402.274 385.181 402.274L430.349 333.077C430.349 333.077 441.277 316.477 455.833 319.236L544.637 336.084C553.529 337.771 562.558 333.929 567.498 326.349L586.612 297.057C589.593 292.491 586.296 286.444 580.845 286.461L372.046 287.415C369.031 287.432 366.229 288.965 364.585 291.503L362.26 295.115C360.505 297.823 362.064 301.443 365.232 302.048L409.251 310.404C413.229 311.579 418.629 314.884 412.684 323.998L369.755 389.77C363.81 398.884 358.606 395.264 355.931 392.095L330.566 355.163C328.735 352.506 324.8 352.54 323.02 355.232L320.652 358.817C318.991 361.339 318.71 364.524 319.911 367.292L403.076 558.818C405.248 563.817 412.113 564.405 415.094 559.831L434.216 530.548C439.165 522.976 439.054 513.155 433.926 505.702L433.935 505.685Z" fill="#BF5528"/>
</svg>
