{
	"asset":{
		"generator":"Khronos glTF Blender I/O v4.2.83",
		"version":"2.0"
	},
	"scene":0,
	"scenes":[
		{
			"name":"Scene",
			"nodes":[
				0,
				1,
				2,
				3,
				4,
				5,
				6,
				7
			]
		}
	],
	"nodes":[
		{
			"mesh":0,
			"name":"Block_1",
			"translation":[
				-1.0035510063171387,
				0.022019319236278534,
				0.024723678827285767
			]
		},
		{
			"mesh":1,
			"name":"Block_2",
			"translation":[
				0.5087785124778748,
				-0.00787700992077589,
				-0.6291564702987671
			]
		},
		{
			"mesh":2,
			"name":"Block_3"
		},
		{
			"mesh":3,
			"name":"Block_4",
			"translation":[
				0,
				0,
				0.8263607621192932
			]
		},
		{
			"mesh":4,
			"name":"Block_5",
			"translation":[
				1.0240983963012695,
				-0.07995165884494781,
				0.31102433800697327
			]
		},
		{
			"mesh":5,
			"name":"Block_2.001",
			"translation":[
				-1.8549425601959229,
				-0.1927298605442047,
				2.5552382469177246
			]
		},
		{
			"mesh":6,
			"name":"Block_3.001",
			"translation":[
				0.028462141752243042,
				0.1454060971736908,
				-0.028422337025403976
			]
		},
		{
			"mesh":7,
			"name":"Block_5.001",
			"translation":[
				0.14696922898292542,
				0.12386968731880188,
				-0.40267491340637207
			]
		}
	],
	"animations":[
		{
			"channels":[
				{
					"sampler":0,
					"target":{
						"node":0,
						"path":"translation"
					}
				},
				{
					"sampler":1,
					"target":{
						"node":0,
						"path":"rotation"
					}
				},
				{
					"sampler":2,
					"target":{
						"node":0,
						"path":"scale"
					}
				}
			],
			"name":"Block_1Action",
			"samplers":[
				{
					"input":29,
					"interpolation":"LINEAR",
					"output":30
				},
				{
					"input":29,
					"interpolation":"LINEAR",
					"output":31
				},
				{
					"input":32,
					"interpolation":"STEP",
					"output":33
				}
			]
		},
		{
			"channels":[
				{
					"sampler":0,
					"target":{
						"node":1,
						"path":"translation"
					}
				},
				{
					"sampler":1,
					"target":{
						"node":1,
						"path":"rotation"
					}
				},
				{
					"sampler":2,
					"target":{
						"node":1,
						"path":"scale"
					}
				}
			],
			"name":"Block_2Action",
			"samplers":[
				{
					"input":29,
					"interpolation":"LINEAR",
					"output":34
				},
				{
					"input":29,
					"interpolation":"LINEAR",
					"output":35
				},
				{
					"input":32,
					"interpolation":"STEP",
					"output":36
				}
			]
		},
		{
			"channels":[
				{
					"sampler":0,
					"target":{
						"node":2,
						"path":"translation"
					}
				},
				{
					"sampler":1,
					"target":{
						"node":2,
						"path":"rotation"
					}
				},
				{
					"sampler":2,
					"target":{
						"node":2,
						"path":"scale"
					}
				}
			],
			"name":"Block_3Action",
			"samplers":[
				{
					"input":29,
					"interpolation":"LINEAR",
					"output":37
				},
				{
					"input":29,
					"interpolation":"LINEAR",
					"output":38
				},
				{
					"input":32,
					"interpolation":"STEP",
					"output":39
				}
			]
		},
		{
			"channels":[
				{
					"sampler":0,
					"target":{
						"node":3,
						"path":"translation"
					}
				},
				{
					"sampler":1,
					"target":{
						"node":3,
						"path":"rotation"
					}
				},
				{
					"sampler":2,
					"target":{
						"node":3,
						"path":"scale"
					}
				}
			],
			"name":"Block_4Action.001",
			"samplers":[
				{
					"input":40,
					"interpolation":"LINEAR",
					"output":41
				},
				{
					"input":40,
					"interpolation":"LINEAR",
					"output":42
				},
				{
					"input":43,
					"interpolation":"STEP",
					"output":44
				}
			]
		},
		{
			"channels":[
				{
					"sampler":0,
					"target":{
						"node":4,
						"path":"translation"
					}
				},
				{
					"sampler":1,
					"target":{
						"node":4,
						"path":"rotation"
					}
				},
				{
					"sampler":2,
					"target":{
						"node":4,
						"path":"scale"
					}
				}
			],
			"name":"Block_5Action",
			"samplers":[
				{
					"input":40,
					"interpolation":"LINEAR",
					"output":45
				},
				{
					"input":40,
					"interpolation":"LINEAR",
					"output":46
				},
				{
					"input":43,
					"interpolation":"STEP",
					"output":47
				}
			]
		},
		{
			"channels":[
				{
					"sampler":0,
					"target":{
						"node":5,
						"path":"translation"
					}
				},
				{
					"sampler":1,
					"target":{
						"node":5,
						"path":"rotation"
					}
				},
				{
					"sampler":2,
					"target":{
						"node":5,
						"path":"scale"
					}
				}
			],
			"name":"Block_2.001Action",
			"samplers":[
				{
					"input":29,
					"interpolation":"LINEAR",
					"output":48
				},
				{
					"input":29,
					"interpolation":"LINEAR",
					"output":49
				},
				{
					"input":32,
					"interpolation":"STEP",
					"output":50
				}
			]
		},
		{
			"channels":[
				{
					"sampler":0,
					"target":{
						"node":6,
						"path":"translation"
					}
				},
				{
					"sampler":1,
					"target":{
						"node":6,
						"path":"rotation"
					}
				},
				{
					"sampler":2,
					"target":{
						"node":6,
						"path":"scale"
					}
				}
			],
			"name":"Block_3.001Action",
			"samplers":[
				{
					"input":32,
					"interpolation":"STEP",
					"output":51
				},
				{
					"input":29,
					"interpolation":"LINEAR",
					"output":52
				},
				{
					"input":32,
					"interpolation":"STEP",
					"output":53
				}
			]
		},
		{
			"channels":[
				{
					"sampler":0,
					"target":{
						"node":7,
						"path":"translation"
					}
				},
				{
					"sampler":1,
					"target":{
						"node":7,
						"path":"rotation"
					}
				},
				{
					"sampler":2,
					"target":{
						"node":7,
						"path":"scale"
					}
				}
			],
			"name":"Block_5Action.001",
			"samplers":[
				{
					"input":29,
					"interpolation":"LINEAR",
					"output":54
				},
				{
					"input":29,
					"interpolation":"LINEAR",
					"output":55
				},
				{
					"input":32,
					"interpolation":"STEP",
					"output":56
				}
			]
		}
	],
	"materials":[
		{
			"doubleSided":true,
			"name":"Material.004",
			"normalTexture":{
				"index":0
			},
			"pbrMetallicRoughness":{
				"baseColorTexture":{
					"index":1
				},
				"metallicFactor":0,
				"roughnessFactor":0.5
			}
		},
		{
			"doubleSided":true,
			"name":"Material.001",
			"normalTexture":{
				"index":2
			},
			"pbrMetallicRoughness":{
				"baseColorTexture":{
					"index":3
				},
				"metallicFactor":0,
				"roughnessFactor":0.5
			}
		},
		{
			"doubleSided":true,
			"name":"Material.002",
			"normalTexture":{
				"index":4
			},
			"pbrMetallicRoughness":{
				"baseColorTexture":{
					"index":5
				},
				"metallicFactor":0,
				"roughnessFactor":0.5
			}
		},
		{
			"doubleSided":true,
			"name":"Material.003",
			"normalTexture":{
				"index":6
			},
			"pbrMetallicRoughness":{
				"baseColorTexture":{
					"index":7
				},
				"metallicFactor":0,
				"roughnessFactor":0.5
			}
		}
	],
	"meshes":[
		{
			"name":"Mesh1.003",
			"primitives":[
				{
					"attributes":{
						"POSITION":0,
						"NORMAL":1,
						"TEXCOORD_0":2
					},
					"indices":3,
					"material":0
				}
			]
		},
		{
			"name":"Mesh1.001",
			"primitives":[
				{
					"attributes":{
						"POSITION":4,
						"NORMAL":5,
						"TEXCOORD_0":6
					},
					"indices":7,
					"material":0
				}
			]
		},
		{
			"name":"Mesh1.002",
			"primitives":[
				{
					"attributes":{
						"POSITION":8,
						"NORMAL":9,
						"TEXCOORD_0":10
					},
					"indices":11,
					"material":0
				}
			]
		},
		{
			"name":"Mesh1.004",
			"primitives":[
				{
					"attributes":{
						"POSITION":12,
						"NORMAL":13,
						"TEXCOORD_0":14
					},
					"indices":15,
					"material":0
				}
			]
		},
		{
			"name":"Mesh1.005",
			"primitives":[
				{
					"attributes":{
						"POSITION":16,
						"NORMAL":17,
						"TEXCOORD_0":18
					},
					"indices":19,
					"material":0
				}
			]
		},
		{
			"name":"Mesh1.006",
			"primitives":[
				{
					"attributes":{
						"POSITION":20,
						"NORMAL":21,
						"TEXCOORD_0":22
					},
					"indices":7,
					"material":1
				}
			]
		},
		{
			"name":"Mesh1.007",
			"primitives":[
				{
					"attributes":{
						"POSITION":23,
						"NORMAL":24,
						"TEXCOORD_0":25
					},
					"indices":11,
					"material":2
				}
			]
		},
		{
			"name":"Mesh1.008",
			"primitives":[
				{
					"attributes":{
						"POSITION":26,
						"NORMAL":27,
						"TEXCOORD_0":28
					},
					"indices":19,
					"material":3
				}
			]
		}
	],
	"textures":[
		{
			"sampler":0,
			"source":0
		},
		{
			"sampler":0,
			"source":1
		},
		{
			"sampler":0,
			"source":0
		},
		{
			"sampler":0,
			"source":1
		},
		{
			"sampler":0,
			"source":0
		},
		{
			"sampler":0,
			"source":1
		},
		{
			"sampler":0,
			"source":0
		},
		{
			"sampler":0,
			"source":1
		}
	],
	"images":[
		{
			"mimeType":"image/png",
			"name":"Baked_Normal",
			"uri":"Baked_Normal.png"
		},
		{
			"mimeType":"image/png",
			"name":"Baked_BaseColor",
			"uri":"Baked_BaseColor.png"
		}
	],
	"accessors":[
		{
			"bufferView":0,
			"componentType":5126,
			"count":445,
			"max":[
				-0.6132429838180542,
				0.3022780418395996,
				0.4534349739551544
			],
			"min":[
				-0.9549070000648499,
				-0.04327498376369476,
				0.11170899122953415
			],
			"type":"VEC3"
		},
		{
			"bufferView":1,
			"componentType":5126,
			"count":445,
			"type":"VEC3"
		},
		{
			"bufferView":2,
			"componentType":5126,
			"count":445,
			"type":"VEC2"
		},
		{
			"bufferView":3,
			"componentType":5123,
			"count":1986,
			"type":"SCALAR"
		},
		{
			"bufferView":4,
			"componentType":5126,
			"count":736,
			"max":[
				0.7201600074768066,
				0.3276199400424957,
				-0.5534510016441345
			],
			"min":[
				0.35141998529434204,
				-0.03148004412651062,
				-0.8883090019226074
			],
			"type":"VEC3"
		},
		{
			"bufferView":5,
			"componentType":5126,
			"count":736,
			"type":"VEC3"
		},
		{
			"bufferView":6,
			"componentType":5126,
			"count":736,
			"type":"VEC2"
		},
		{
			"bufferView":7,
			"componentType":5123,
			"count":2118,
			"type":"SCALAR"
		},
		{
			"bufferView":8,
			"componentType":5126,
			"count":426,
			"max":[
				-0.02299400046467781,
				0.3291039764881134,
				-0.056478019803762436
			],
			"min":[
				-0.4611760079860687,
				-0.05596601590514183,
				-0.46032899618148804
			],
			"type":"VEC3"
		},
		{
			"bufferView":9,
			"componentType":5126,
			"count":426,
			"type":"VEC3"
		},
		{
			"bufferView":10,
			"componentType":5126,
			"count":426,
			"type":"VEC2"
		},
		{
			"bufferView":11,
			"componentType":5123,
			"count":1614,
			"type":"SCALAR"
		},
		{
			"bufferView":12,
			"componentType":5126,
			"count":99,
			"max":[
				0.20583899319171906,
				-0.03074393980205059,
				0.8864499926567078
			],
			"min":[
				-0.12789100408554077,
				-0.3284079432487488,
				0.5587379932403564
			],
			"type":"VEC3"
		},
		{
			"bufferView":13,
			"componentType":5126,
			"count":99,
			"type":"VEC3"
		},
		{
			"bufferView":14,
			"componentType":5126,
			"count":99,
			"type":"VEC2"
		},
		{
			"bufferView":15,
			"componentType":5123,
			"count":270,
			"type":"SCALAR"
		},
		{
			"bufferView":16,
			"componentType":5126,
			"count":685,
			"max":[
				0.9530490040779114,
				0.11219502985477448,
				0.4297100007534027
			],
			"min":[
				0.5212219953536987,
				-0.32500097155570984,
				0.029289009049534798
			],
			"type":"VEC3"
		},
		{
			"bufferView":17,
			"componentType":5126,
			"count":685,
			"type":"VEC3"
		},
		{
			"bufferView":18,
			"componentType":5126,
			"count":685,
			"type":"VEC2"
		},
		{
			"bufferView":19,
			"componentType":5123,
			"count":3012,
			"type":"SCALAR"
		},
		{
			"bufferView":20,
			"componentType":5126,
			"count":736,
			"max":[
				0.7201600074768066,
				0.3276199400424957,
				-0.5534510016441345
			],
			"min":[
				0.35141998529434204,
				-0.03148004412651062,
				-0.8883090019226074
			],
			"type":"VEC3"
		},
		{
			"bufferView":21,
			"componentType":5126,
			"count":736,
			"type":"VEC3"
		},
		{
			"bufferView":22,
			"componentType":5126,
			"count":736,
			"type":"VEC2"
		},
		{
			"bufferView":23,
			"componentType":5126,
			"count":426,
			"max":[
				-1.0609886646270752,
				0.019089579582214355,
				-1.172675609588623
			],
			"min":[
				-1.4991706609725952,
				-0.3659804165363312,
				-1.5765265226364136
			],
			"type":"VEC3"
		},
		{
			"bufferView":24,
			"componentType":5126,
			"count":426,
			"type":"VEC3"
		},
		{
			"bufferView":25,
			"componentType":5126,
			"count":426,
			"type":"VEC2"
		},
		{
			"bufferView":26,
			"componentType":5126,
			"count":685,
			"max":[
				1.17863130569458,
				0.1409585028886795,
				2.611009359359741
			],
			"min":[
				0.7468043565750122,
				-0.2962374985218048,
				2.2105884552001953
			],
			"type":"VEC3"
		},
		{
			"bufferView":27,
			"componentType":5126,
			"count":685,
			"type":"VEC3"
		},
		{
			"bufferView":28,
			"componentType":5126,
			"count":685,
			"type":"VEC2"
		},
		{
			"bufferView":29,
			"componentType":5126,
			"count":251,
			"max":[
				10.416666666666666
			],
			"min":[
				0
			],
			"type":"SCALAR"
		},
		{
			"bufferView":30,
			"componentType":5126,
			"count":251,
			"type":"VEC3"
		},
		{
			"bufferView":31,
			"componentType":5126,
			"count":251,
			"type":"VEC4"
		},
		{
			"bufferView":32,
			"componentType":5126,
			"count":2,
			"max":[
				10.416666666666666
			],
			"min":[
				0
			],
			"type":"SCALAR"
		},
		{
			"bufferView":33,
			"componentType":5126,
			"count":2,
			"type":"VEC3"
		},
		{
			"bufferView":34,
			"componentType":5126,
			"count":251,
			"type":"VEC3"
		},
		{
			"bufferView":35,
			"componentType":5126,
			"count":251,
			"type":"VEC4"
		},
		{
			"bufferView":36,
			"componentType":5126,
			"count":2,
			"type":"VEC3"
		},
		{
			"bufferView":37,
			"componentType":5126,
			"count":251,
			"type":"VEC3"
		},
		{
			"bufferView":38,
			"componentType":5126,
			"count":251,
			"type":"VEC4"
		},
		{
			"bufferView":39,
			"componentType":5126,
			"count":2,
			"type":"VEC3"
		},
		{
			"bufferView":40,
			"componentType":5126,
			"count":241,
			"max":[
				10
			],
			"min":[
				0
			],
			"type":"SCALAR"
		},
		{
			"bufferView":41,
			"componentType":5126,
			"count":241,
			"type":"VEC3"
		},
		{
			"bufferView":42,
			"componentType":5126,
			"count":241,
			"type":"VEC4"
		},
		{
			"bufferView":43,
			"componentType":5126,
			"count":2,
			"max":[
				10
			],
			"min":[
				0
			],
			"type":"SCALAR"
		},
		{
			"bufferView":44,
			"componentType":5126,
			"count":2,
			"type":"VEC3"
		},
		{
			"bufferView":45,
			"componentType":5126,
			"count":241,
			"type":"VEC3"
		},
		{
			"bufferView":46,
			"componentType":5126,
			"count":241,
			"type":"VEC4"
		},
		{
			"bufferView":47,
			"componentType":5126,
			"count":2,
			"type":"VEC3"
		},
		{
			"bufferView":48,
			"componentType":5126,
			"count":251,
			"type":"VEC3"
		},
		{
			"bufferView":49,
			"componentType":5126,
			"count":251,
			"type":"VEC4"
		},
		{
			"bufferView":50,
			"componentType":5126,
			"count":2,
			"type":"VEC3"
		},
		{
			"bufferView":51,
			"componentType":5126,
			"count":2,
			"type":"VEC3"
		},
		{
			"bufferView":52,
			"componentType":5126,
			"count":251,
			"type":"VEC4"
		},
		{
			"bufferView":53,
			"componentType":5126,
			"count":2,
			"type":"VEC3"
		},
		{
			"bufferView":54,
			"componentType":5126,
			"count":251,
			"type":"VEC3"
		},
		{
			"bufferView":55,
			"componentType":5126,
			"count":251,
			"type":"VEC4"
		},
		{
			"bufferView":56,
			"componentType":5126,
			"count":2,
			"type":"VEC3"
		}
	],
	"bufferViews":[
		{
			"buffer":0,
			"byteLength":5340,
			"byteOffset":0,
			"target":34962
		},
		{
			"buffer":0,
			"byteLength":5340,
			"byteOffset":5340,
			"target":34962
		},
		{
			"buffer":0,
			"byteLength":3560,
			"byteOffset":10680,
			"target":34962
		},
		{
			"buffer":0,
			"byteLength":3972,
			"byteOffset":14240,
			"target":34963
		},
		{
			"buffer":0,
			"byteLength":8832,
			"byteOffset":18212,
			"target":34962
		},
		{
			"buffer":0,
			"byteLength":8832,
			"byteOffset":27044,
			"target":34962
		},
		{
			"buffer":0,
			"byteLength":5888,
			"byteOffset":35876,
			"target":34962
		},
		{
			"buffer":0,
			"byteLength":4236,
			"byteOffset":41764,
			"target":34963
		},
		{
			"buffer":0,
			"byteLength":5112,
			"byteOffset":46000,
			"target":34962
		},
		{
			"buffer":0,
			"byteLength":5112,
			"byteOffset":51112,
			"target":34962
		},
		{
			"buffer":0,
			"byteLength":3408,
			"byteOffset":56224,
			"target":34962
		},
		{
			"buffer":0,
			"byteLength":3228,
			"byteOffset":59632,
			"target":34963
		},
		{
			"buffer":0,
			"byteLength":1188,
			"byteOffset":62860,
			"target":34962
		},
		{
			"buffer":0,
			"byteLength":1188,
			"byteOffset":64048,
			"target":34962
		},
		{
			"buffer":0,
			"byteLength":792,
			"byteOffset":65236,
			"target":34962
		},
		{
			"buffer":0,
			"byteLength":540,
			"byteOffset":66028,
			"target":34963
		},
		{
			"buffer":0,
			"byteLength":8220,
			"byteOffset":66568,
			"target":34962
		},
		{
			"buffer":0,
			"byteLength":8220,
			"byteOffset":74788,
			"target":34962
		},
		{
			"buffer":0,
			"byteLength":5480,
			"byteOffset":83008,
			"target":34962
		},
		{
			"buffer":0,
			"byteLength":6024,
			"byteOffset":88488,
			"target":34963
		},
		{
			"buffer":0,
			"byteLength":8832,
			"byteOffset":94512,
			"target":34962
		},
		{
			"buffer":0,
			"byteLength":8832,
			"byteOffset":103344,
			"target":34962
		},
		{
			"buffer":0,
			"byteLength":5888,
			"byteOffset":112176,
			"target":34962
		},
		{
			"buffer":0,
			"byteLength":5112,
			"byteOffset":118064,
			"target":34962
		},
		{
			"buffer":0,
			"byteLength":5112,
			"byteOffset":123176,
			"target":34962
		},
		{
			"buffer":0,
			"byteLength":3408,
			"byteOffset":128288,
			"target":34962
		},
		{
			"buffer":0,
			"byteLength":8220,
			"byteOffset":131696,
			"target":34962
		},
		{
			"buffer":0,
			"byteLength":8220,
			"byteOffset":139916,
			"target":34962
		},
		{
			"buffer":0,
			"byteLength":5480,
			"byteOffset":148136,
			"target":34962
		},
		{
			"buffer":0,
			"byteLength":1004,
			"byteOffset":153616
		},
		{
			"buffer":0,
			"byteLength":3012,
			"byteOffset":154620
		},
		{
			"buffer":0,
			"byteLength":4016,
			"byteOffset":157632
		},
		{
			"buffer":0,
			"byteLength":8,
			"byteOffset":161648
		},
		{
			"buffer":0,
			"byteLength":24,
			"byteOffset":161656
		},
		{
			"buffer":0,
			"byteLength":3012,
			"byteOffset":161680
		},
		{
			"buffer":0,
			"byteLength":4016,
			"byteOffset":164692
		},
		{
			"buffer":0,
			"byteLength":24,
			"byteOffset":168708
		},
		{
			"buffer":0,
			"byteLength":3012,
			"byteOffset":168732
		},
		{
			"buffer":0,
			"byteLength":4016,
			"byteOffset":171744
		},
		{
			"buffer":0,
			"byteLength":24,
			"byteOffset":175760
		},
		{
			"buffer":0,
			"byteLength":964,
			"byteOffset":175784
		},
		{
			"buffer":0,
			"byteLength":2892,
			"byteOffset":176748
		},
		{
			"buffer":0,
			"byteLength":3856,
			"byteOffset":179640
		},
		{
			"buffer":0,
			"byteLength":8,
			"byteOffset":183496
		},
		{
			"buffer":0,
			"byteLength":24,
			"byteOffset":183504
		},
		{
			"buffer":0,
			"byteLength":2892,
			"byteOffset":183528
		},
		{
			"buffer":0,
			"byteLength":3856,
			"byteOffset":186420
		},
		{
			"buffer":0,
			"byteLength":24,
			"byteOffset":190276
		},
		{
			"buffer":0,
			"byteLength":3012,
			"byteOffset":190300
		},
		{
			"buffer":0,
			"byteLength":4016,
			"byteOffset":193312
		},
		{
			"buffer":0,
			"byteLength":24,
			"byteOffset":197328
		},
		{
			"buffer":0,
			"byteLength":24,
			"byteOffset":197352
		},
		{
			"buffer":0,
			"byteLength":4016,
			"byteOffset":197376
		},
		{
			"buffer":0,
			"byteLength":24,
			"byteOffset":201392
		},
		{
			"buffer":0,
			"byteLength":3012,
			"byteOffset":201416
		},
		{
			"buffer":0,
			"byteLength":4016,
			"byteOffset":204428
		},
		{
			"buffer":0,
			"byteLength":24,
			"byteOffset":208444
		}
	],
	"samplers":[
		{
			"magFilter":9729,
			"minFilter":9987
		}
	],
	"buffers":[
		{
			"byteLength":208468,
			"uri":"Brick_Animation_3.bin"
		}
	]
}
