{
	"asset":{
		"generator":"Khronos glTF Blender I/O v4.5.47",
		"version":"2.0"
	},
	"scene":0,
	"scenes":[
		{
			"name":"Scene",
			"nodes":[
				0,
				1,
				2,
				3,
				4
			]
		}
	],
	"nodes":[
		{
			"mesh":0,
			"name":"Block_1",
			"translation":[
				-1.0035510063171387,
				0.022019319236278534,
				0.024723678827285767
			]
		},
		{
			"mesh":1,
			"name":"Block_2",
			"translation":[
				0.5087785124778748,
				-0.00787700992077589,
				-0.6291564702987671
			]
		},
		{
			"mesh":2,
			"name":"Block_3"
		},
		{
			"mesh":3,
			"name":"Block_4",
			"translation":[
				0,
				0,
				0.8263607621192932
			]
		},
		{
			"mesh":4,
			"name":"Block_5",
			"translation":[
				1.0240983963012695,
				-0.07995165884494781,
				0.31102433800697327
			]
		}
	],
	"animations":[
		{
			"channels":[
				{
					"sampler":0,
					"target":{
						"node":0,
						"path":"translation"
					}
				},
				{
					"sampler":1,
					"target":{
						"node":0,
						"path":"rotation"
					}
				},
				{
					"sampler":2,
					"target":{
						"node":0,
						"path":"scale"
					}
				}
			],
			"name":"Block_1Action",
			"samplers":[
				{
					"input":20,
					"interpolation":"LINEAR",
					"output":21
				},
				{
					"input":20,
					"interpolation":"LINEAR",
					"output":22
				},
				{
					"input":23,
					"interpolation":"STEP",
					"output":24
				}
			]
		},
		{
			"channels":[
				{
					"sampler":0,
					"target":{
						"node":1,
						"path":"translation"
					}
				},
				{
					"sampler":1,
					"target":{
						"node":1,
						"path":"rotation"
					}
				},
				{
					"sampler":2,
					"target":{
						"node":1,
						"path":"scale"
					}
				}
			],
			"name":"Block_2Action",
			"samplers":[
				{
					"input":20,
					"interpolation":"LINEAR",
					"output":25
				},
				{
					"input":20,
					"interpolation":"LINEAR",
					"output":26
				},
				{
					"input":23,
					"interpolation":"STEP",
					"output":24
				}
			]
		},
		{
			"channels":[
				{
					"sampler":0,
					"target":{
						"node":2,
						"path":"translation"
					}
				},
				{
					"sampler":1,
					"target":{
						"node":2,
						"path":"rotation"
					}
				},
				{
					"sampler":2,
					"target":{
						"node":2,
						"path":"scale"
					}
				}
			],
			"name":"Block_3Action",
			"samplers":[
				{
					"input":20,
					"interpolation":"LINEAR",
					"output":27
				},
				{
					"input":20,
					"interpolation":"LINEAR",
					"output":28
				},
				{
					"input":23,
					"interpolation":"STEP",
					"output":24
				}
			]
		},
		{
			"channels":[
				{
					"sampler":0,
					"target":{
						"node":3,
						"path":"translation"
					}
				},
				{
					"sampler":1,
					"target":{
						"node":3,
						"path":"rotation"
					}
				},
				{
					"sampler":2,
					"target":{
						"node":3,
						"path":"scale"
					}
				}
			],
			"name":"Block_4Action.001",
			"samplers":[
				{
					"input":29,
					"interpolation":"LINEAR",
					"output":30
				},
				{
					"input":29,
					"interpolation":"LINEAR",
					"output":31
				},
				{
					"input":32,
					"interpolation":"STEP",
					"output":24
				}
			]
		},
		{
			"channels":[
				{
					"sampler":0,
					"target":{
						"node":4,
						"path":"translation"
					}
				},
				{
					"sampler":1,
					"target":{
						"node":4,
						"path":"rotation"
					}
				},
				{
					"sampler":2,
					"target":{
						"node":4,
						"path":"scale"
					}
				}
			],
			"name":"Block_5Action",
			"samplers":[
				{
					"input":29,
					"interpolation":"LINEAR",
					"output":33
				},
				{
					"input":29,
					"interpolation":"LINEAR",
					"output":34
				},
				{
					"input":32,
					"interpolation":"STEP",
					"output":24
				}
			]
		}
	],
	"materials":[
		{
			"alphaMode":"BLEND",
			"doubleSided":true,
			"name":"Material.004",
			"normalTexture":{
				"index":0
			},
			"pbrMetallicRoughness":{
				"baseColorTexture":{
					"index":1
				},
				"metallicFactor":0,
				"roughnessFactor":0.5
			}
		}
	],
	"meshes":[
		{
			"name":"Mesh1.003",
			"primitives":[
				{
					"attributes":{
						"POSITION":0,
						"NORMAL":1,
						"TEXCOORD_0":2
					},
					"indices":3,
					"material":0
				}
			]
		},
		{
			"name":"Mesh1.001",
			"primitives":[
				{
					"attributes":{
						"POSITION":4,
						"NORMAL":5,
						"TEXCOORD_0":6
					},
					"indices":7,
					"material":0
				}
			]
		},
		{
			"name":"Mesh1.002",
			"primitives":[
				{
					"attributes":{
						"POSITION":8,
						"NORMAL":9,
						"TEXCOORD_0":10
					},
					"indices":11,
					"material":0
				}
			]
		},
		{
			"name":"Mesh1.004",
			"primitives":[
				{
					"attributes":{
						"POSITION":12,
						"NORMAL":13,
						"TEXCOORD_0":14
					},
					"indices":15,
					"material":0
				}
			]
		},
		{
			"name":"Mesh1.005",
			"primitives":[
				{
					"attributes":{
						"POSITION":16,
						"NORMAL":17,
						"TEXCOORD_0":18
					},
					"indices":19,
					"material":0
				}
			]
		}
	],
	"textures":[
		{
			"sampler":0,
			"source":0
		},
		{
			"sampler":0,
			"source":1
		}
	],
	"images":[
		{
			"mimeType":"image/png",
			"name":"Baked_Normal",
			"uri":"Baked_Normal.png"
		},
		{
			"mimeType":"image/png",
			"name":"Baked_BaseColor",
			"uri":"Baked_BaseColor.png"
		}
	],
	"accessors":[
		{
			"bufferView":0,
			"componentType":5126,
			"count":445,
			"max":[
				-0.6132429838180542,
				0.3022780418395996,
				0.4534349739551544
			],
			"min":[
				-0.9549070000648499,
				-0.04327498376369476,
				0.11170899122953415
			],
			"type":"VEC3"
		},
		{
			"bufferView":1,
			"componentType":5126,
			"count":445,
			"type":"VEC3"
		},
		{
			"bufferView":2,
			"componentType":5126,
			"count":445,
			"type":"VEC2"
		},
		{
			"bufferView":3,
			"componentType":5123,
			"count":1986,
			"type":"SCALAR"
		},
		{
			"bufferView":4,
			"componentType":5126,
			"count":736,
			"max":[
				0.7201600074768066,
				0.3276199400424957,
				-0.5534510016441345
			],
			"min":[
				0.35141998529434204,
				-0.03148004412651062,
				-0.8883090019226074
			],
			"type":"VEC3"
		},
		{
			"bufferView":5,
			"componentType":5126,
			"count":736,
			"type":"VEC3"
		},
		{
			"bufferView":6,
			"componentType":5126,
			"count":736,
			"type":"VEC2"
		},
		{
			"bufferView":7,
			"componentType":5123,
			"count":2118,
			"type":"SCALAR"
		},
		{
			"bufferView":8,
			"componentType":5126,
			"count":426,
			"max":[
				-0.02299400046467781,
				0.3291039764881134,
				-0.056478019803762436
			],
			"min":[
				-0.4611760079860687,
				-0.05596601590514183,
				-0.46032899618148804
			],
			"type":"VEC3"
		},
		{
			"bufferView":9,
			"componentType":5126,
			"count":426,
			"type":"VEC3"
		},
		{
			"bufferView":10,
			"componentType":5126,
			"count":426,
			"type":"VEC2"
		},
		{
			"bufferView":11,
			"componentType":5123,
			"count":1614,
			"type":"SCALAR"
		},
		{
			"bufferView":12,
			"componentType":5126,
			"count":92,
			"max":[
				0.20583899319171906,
				-0.03074393980205059,
				0.8864499926567078
			],
			"min":[
				-0.12789100408554077,
				-0.3284079432487488,
				0.5587379932403564
			],
			"type":"VEC3"
		},
		{
			"bufferView":13,
			"componentType":5126,
			"count":92,
			"type":"VEC3"
		},
		{
			"bufferView":14,
			"componentType":5126,
			"count":92,
			"type":"VEC2"
		},
		{
			"bufferView":15,
			"componentType":5123,
			"count":270,
			"type":"SCALAR"
		},
		{
			"bufferView":16,
			"componentType":5126,
			"count":685,
			"max":[
				0.9530490040779114,
				0.11219502985477448,
				0.4297100007534027
			],
			"min":[
				0.5212219953536987,
				-0.32500097155570984,
				0.029289009049534798
			],
			"type":"VEC3"
		},
		{
			"bufferView":17,
			"componentType":5126,
			"count":685,
			"type":"VEC3"
		},
		{
			"bufferView":18,
			"componentType":5126,
			"count":685,
			"type":"VEC2"
		},
		{
			"bufferView":19,
			"componentType":5123,
			"count":3012,
			"type":"SCALAR"
		},
		{
			"bufferView":20,
			"componentType":5126,
			"count":251,
			"max":[
				10.416666666666666
			],
			"min":[
				0
			],
			"type":"SCALAR"
		},
		{
			"bufferView":21,
			"componentType":5126,
			"count":251,
			"type":"VEC3"
		},
		{
			"bufferView":22,
			"componentType":5126,
			"count":251,
			"type":"VEC4"
		},
		{
			"bufferView":23,
			"componentType":5126,
			"count":2,
			"max":[
				10.416666666666666
			],
			"min":[
				0
			],
			"type":"SCALAR"
		},
		{
			"bufferView":24,
			"componentType":5126,
			"count":2,
			"type":"VEC3"
		},
		{
			"bufferView":25,
			"componentType":5126,
			"count":251,
			"type":"VEC3"
		},
		{
			"bufferView":26,
			"componentType":5126,
			"count":251,
			"type":"VEC4"
		},
		{
			"bufferView":27,
			"componentType":5126,
			"count":251,
			"type":"VEC3"
		},
		{
			"bufferView":28,
			"componentType":5126,
			"count":251,
			"type":"VEC4"
		},
		{
			"bufferView":29,
			"componentType":5126,
			"count":241,
			"max":[
				10
			],
			"min":[
				0
			],
			"type":"SCALAR"
		},
		{
			"bufferView":30,
			"componentType":5126,
			"count":241,
			"type":"VEC3"
		},
		{
			"bufferView":31,
			"componentType":5126,
			"count":241,
			"type":"VEC4"
		},
		{
			"bufferView":32,
			"componentType":5126,
			"count":2,
			"max":[
				10
			],
			"min":[
				0
			],
			"type":"SCALAR"
		},
		{
			"bufferView":33,
			"componentType":5126,
			"count":241,
			"type":"VEC3"
		},
		{
			"bufferView":34,
			"componentType":5126,
			"count":241,
			"type":"VEC4"
		}
	],
	"bufferViews":[
		{
			"buffer":0,
			"byteLength":5340,
			"byteOffset":0,
			"target":34962
		},
		{
			"buffer":0,
			"byteLength":5340,
			"byteOffset":5340,
			"target":34962
		},
		{
			"buffer":0,
			"byteLength":3560,
			"byteOffset":10680,
			"target":34962
		},
		{
			"buffer":0,
			"byteLength":3972,
			"byteOffset":14240,
			"target":34963
		},
		{
			"buffer":0,
			"byteLength":8832,
			"byteOffset":18212,
			"target":34962
		},
		{
			"buffer":0,
			"byteLength":8832,
			"byteOffset":27044,
			"target":34962
		},
		{
			"buffer":0,
			"byteLength":5888,
			"byteOffset":35876,
			"target":34962
		},
		{
			"buffer":0,
			"byteLength":4236,
			"byteOffset":41764,
			"target":34963
		},
		{
			"buffer":0,
			"byteLength":5112,
			"byteOffset":46000,
			"target":34962
		},
		{
			"buffer":0,
			"byteLength":5112,
			"byteOffset":51112,
			"target":34962
		},
		{
			"buffer":0,
			"byteLength":3408,
			"byteOffset":56224,
			"target":34962
		},
		{
			"buffer":0,
			"byteLength":3228,
			"byteOffset":59632,
			"target":34963
		},
		{
			"buffer":0,
			"byteLength":1104,
			"byteOffset":62860,
			"target":34962
		},
		{
			"buffer":0,
			"byteLength":1104,
			"byteOffset":63964,
			"target":34962
		},
		{
			"buffer":0,
			"byteLength":736,
			"byteOffset":65068,
			"target":34962
		},
		{
			"buffer":0,
			"byteLength":540,
			"byteOffset":65804,
			"target":34963
		},
		{
			"buffer":0,
			"byteLength":8220,
			"byteOffset":66344,
			"target":34962
		},
		{
			"buffer":0,
			"byteLength":8220,
			"byteOffset":74564,
			"target":34962
		},
		{
			"buffer":0,
			"byteLength":5480,
			"byteOffset":82784,
			"target":34962
		},
		{
			"buffer":0,
			"byteLength":6024,
			"byteOffset":88264,
			"target":34963
		},
		{
			"buffer":0,
			"byteLength":1004,
			"byteOffset":94288
		},
		{
			"buffer":0,
			"byteLength":3012,
			"byteOffset":95292
		},
		{
			"buffer":0,
			"byteLength":4016,
			"byteOffset":98304
		},
		{
			"buffer":0,
			"byteLength":8,
			"byteOffset":102320
		},
		{
			"buffer":0,
			"byteLength":24,
			"byteOffset":102328
		},
		{
			"buffer":0,
			"byteLength":3012,
			"byteOffset":102352
		},
		{
			"buffer":0,
			"byteLength":4016,
			"byteOffset":105364
		},
		{
			"buffer":0,
			"byteLength":3012,
			"byteOffset":109380
		},
		{
			"buffer":0,
			"byteLength":4016,
			"byteOffset":112392
		},
		{
			"buffer":0,
			"byteLength":964,
			"byteOffset":116408
		},
		{
			"buffer":0,
			"byteLength":2892,
			"byteOffset":117372
		},
		{
			"buffer":0,
			"byteLength":3856,
			"byteOffset":120264
		},
		{
			"buffer":0,
			"byteLength":8,
			"byteOffset":124120
		},
		{
			"buffer":0,
			"byteLength":2892,
			"byteOffset":124128
		},
		{
			"buffer":0,
			"byteLength":3856,
			"byteOffset":127020
		}
	],
	"samplers":[
		{
			"magFilter":9729,
			"minFilter":9987
		}
	],
	"buffers":[
		{
			"byteLength":130876,
			"uri":"Brick_Animation_1.bin"
		}
	]
}
